# xmcd
#
# Track frame offsets:
#	150
#	12864
#	28442
#	54102
#	65491
#	101113
#	127206
#	145434
#
# Disc length: 2200 seconds
#
# Revision: 0
# Processed by: cddbd v1.5.2PL0 Copyright (c) Steve Scherf et al.
# Submitted via: EasyCDDAExtractor 16.0.9.1
#
DISCID=76089608
DTITLE=İbrahim Sadri - yâd
DYEAR=2011
DGENRE=Şiir
TTITLE0=Vedud
TTITLE1=Medine'nin Gülü
TTITLE2=Sesler ve Adımlar
TTITLE3=Ruhum Sana Aşık
TTITLE4=Seccaden Kumlardı
TTITLE5=O Gece Sendin Gelen
TTITLE6=Yanan Kalbe Devasın Sen
TTITLE7=Yanlızlık Kımıldar
EXTD=
EXTT0=
EXTT1=
EXTT2=
EXTT3=
EXTT4=
EXTT5=
EXTT6=
EXTT7=
PLAYORDER=
